<mxfile host="app.diagrams.net" modified="2024-07-09T12:47:57.525Z" agent="Mozilla/5.0 (Windows NT 10.0; Win64; x64) AppleWebKit/537.36 (KHTML, like Gecko) Chrome/126.0.0.0 Safari/537.36" etag="6KYMk5g4Zu9mIppi669X" version="24.6.4" type="device">
  <diagram name="Page-1" id="uubkb7oMpfcRfXY-gytG">
    <mxGraphModel dx="1051" dy="557" grid="1" gridSize="10" guides="1" tooltips="1" connect="1" arrows="1" fold="1" page="1" pageScale="1" pageWidth="850" pageHeight="1100" math="0" shadow="0">
      <root>
        <mxCell id="0" />
        <mxCell id="1" parent="0" />
        <mxCell id="dQEIofrUGCq6iLHxiWzZ-1" value="" style="rounded=0;whiteSpace=wrap;html=1;strokeColor=#FFFFFF;" parent="1" vertex="1">
          <mxGeometry x="30" y="300" width="630" height="530" as="geometry" />
        </mxCell>
        <mxCell id="dQEIofrUGCq6iLHxiWzZ-2" value="&lt;span style=&quot;font-size: 14px;&quot;&gt;&lt;b&gt;S : System&lt;/b&gt;&lt;/span&gt;" style="shape=umlLifeline;perimeter=lifelinePerimeter;whiteSpace=wrap;html=1;container=1;dropTarget=0;collapsible=0;recursiveResize=0;outlineConnect=0;portConstraint=eastwest;newEdgeStyle={&quot;curved&quot;:0,&quot;rounded&quot;:0};strokeWidth=2;size=30;" parent="1" vertex="1">
          <mxGeometry x="50" y="320" width="100" height="470" as="geometry" />
        </mxCell>
        <mxCell id="dQEIofrUGCq6iLHxiWzZ-7" value="" style="html=1;points=[[0,0,0,0,5],[0,1,0,0,-5],[1,0,0,0,5],[1,1,0,0,-5]];perimeter=orthogonalPerimeter;outlineConnect=0;targetShapes=umlLifeline;portConstraint=eastwest;newEdgeStyle={&quot;curved&quot;:0,&quot;rounded&quot;:0};" parent="dQEIofrUGCq6iLHxiWzZ-2" vertex="1">
          <mxGeometry x="45" y="48" width="10" height="392" as="geometry" />
        </mxCell>
        <mxCell id="dQEIofrUGCq6iLHxiWzZ-3" value="&lt;span style=&quot;font-size: 14px;&quot;&gt;&lt;b&gt;A : Admin&lt;/b&gt;&lt;/span&gt;" style="shape=umlLifeline;perimeter=lifelinePerimeter;whiteSpace=wrap;html=1;container=1;dropTarget=0;collapsible=0;recursiveResize=0;outlineConnect=0;portConstraint=eastwest;newEdgeStyle={&quot;curved&quot;:0,&quot;rounded&quot;:0};strokeWidth=2;size=30;" parent="1" vertex="1">
          <mxGeometry x="310" y="320" width="100" height="470" as="geometry" />
        </mxCell>
        <mxCell id="NSDppucb-_E78mq635yV-3" value="" style="html=1;points=[[0,0,0,0,5],[0,1,0,0,-5],[1,0,0,0,5],[1,1,0,0,-5]];perimeter=orthogonalPerimeter;outlineConnect=0;targetShapes=umlLifeline;portConstraint=eastwest;newEdgeStyle={&quot;curved&quot;:0,&quot;rounded&quot;:0};" vertex="1" parent="dQEIofrUGCq6iLHxiWzZ-3">
          <mxGeometry x="45" y="60" width="10" height="52" as="geometry" />
        </mxCell>
        <mxCell id="NSDppucb-_E78mq635yV-14" value="" style="html=1;points=[[0,0,0,0,5],[0,1,0,0,-5],[1,0,0,0,5],[1,1,0,0,-5]];perimeter=orthogonalPerimeter;outlineConnect=0;targetShapes=umlLifeline;portConstraint=eastwest;newEdgeStyle={&quot;curved&quot;:0,&quot;rounded&quot;:0};" vertex="1" parent="dQEIofrUGCq6iLHxiWzZ-3">
          <mxGeometry x="45" y="212" width="10" height="45" as="geometry" />
        </mxCell>
        <mxCell id="dQEIofrUGCq6iLHxiWzZ-4" value="&lt;span style=&quot;font-size: 14px;&quot;&gt;&lt;b&gt;M : Member&lt;/b&gt;&lt;/span&gt;" style="shape=umlLifeline;perimeter=lifelinePerimeter;whiteSpace=wrap;html=1;container=1;dropTarget=0;collapsible=0;recursiveResize=0;outlineConnect=0;portConstraint=eastwest;newEdgeStyle={&quot;curved&quot;:0,&quot;rounded&quot;:0};strokeWidth=2;size=30;" parent="1" vertex="1">
          <mxGeometry x="549" y="320" width="100" height="470" as="geometry" />
        </mxCell>
        <mxCell id="NSDppucb-_E78mq635yV-24" value="" style="html=1;points=[[0,0,0,0,5],[0,1,0,0,-5],[1,0,0,0,5],[1,1,0,0,-5]];perimeter=orthogonalPerimeter;outlineConnect=0;targetShapes=umlLifeline;portConstraint=eastwest;newEdgeStyle={&quot;curved&quot;:0,&quot;rounded&quot;:0};" vertex="1" parent="dQEIofrUGCq6iLHxiWzZ-4">
          <mxGeometry x="45" y="352.5" width="10" height="60" as="geometry" />
        </mxCell>
        <mxCell id="NSDppucb-_E78mq635yV-35" value="" style="html=1;points=[[0,0,0,0,5],[0,1,0,0,-5],[1,0,0,0,5],[1,1,0,0,-5]];perimeter=orthogonalPerimeter;outlineConnect=0;targetShapes=umlLifeline;portConstraint=eastwest;newEdgeStyle={&quot;curved&quot;:0,&quot;rounded&quot;:0};" vertex="1" parent="dQEIofrUGCq6iLHxiWzZ-4">
          <mxGeometry x="45" y="59" width="10" height="60" as="geometry" />
        </mxCell>
        <mxCell id="NSDppucb-_E78mq635yV-4" value="" style="endArrow=classic;html=1;rounded=0;" edge="1" parent="1">
          <mxGeometry width="50" height="50" relative="1" as="geometry">
            <mxPoint x="353.75" y="380" as="sourcePoint" />
            <mxPoint x="103.75" y="380" as="targetPoint" />
          </mxGeometry>
        </mxCell>
        <mxCell id="NSDppucb-_E78mq635yV-5" value="&lt;font style=&quot;font-size: 14px;&quot;&gt;&lt;b&gt;2. Validate Adm&lt;/b&gt;&lt;span style=&quot;color: rgba(0, 0, 0, 0); font-family: monospace; font-size: 0px; text-align: start; text-wrap: nowrap;&quot;&gt;%3CmxGraphModel%3E%3Croot%3E%3CmxCell%20id%3D%220%22%2F%3E%3CmxCell%20id%3D%221%22%20parent%3D%220%22%2F%3E%3CmxCell%20id%3D%222%22%20value%3D%22%26lt%3Bfont%20style%3D%26quot%3Bfont-size%3A%2014px%3B%26quot%3B%26gt%3B%26lt%3Bb%26gt%3B2.%20Responce%20for%20Validation%26lt%3B%2Fb%26gt%3B%26lt%3B%2Ffont%26gt%3B%22%20style%3D%22html%3D1%3BverticalAlign%3Dbottom%3BendArrow%3Dopen%3Bdashed%3D1%3BendSize%3D8%3Bcurved%3D0%3Brounded%3D0%3B%22%20edge%3D%221%22%20parent%3D%221%22%3E%3CmxGeometry%20relative%3D%221%22%20as%3D%22geometry%22%3E%3CmxPoint%20x%3D%22105%22%20y%3D%22420%22%20as%3D%22sourcePoint%22%2F%3E%3CmxPoint%20x%3D%22355%22%20y%3D%22420%22%20as%3D%22targetPoint%22%2F%3E%3C%2FmxGeometry%3E%3C%2FmxCell%3E%3C%2Froot%3E%3C%2FmxGraphModel%3E&lt;/span&gt;&lt;b&gt;in&lt;/b&gt;&lt;/font&gt;" style="text;html=1;align=center;verticalAlign=middle;whiteSpace=wrap;rounded=0;" vertex="1" parent="1">
          <mxGeometry x="136" y="361" width="130" height="20" as="geometry" />
        </mxCell>
        <mxCell id="NSDppucb-_E78mq635yV-7" value="&lt;font style=&quot;font-size: 14px;&quot;&gt;&lt;b&gt;3. Responce for Validation&lt;/b&gt;&lt;/font&gt;" style="html=1;verticalAlign=bottom;endArrow=open;dashed=1;endSize=8;curved=0;rounded=0;" edge="1" parent="1">
          <mxGeometry relative="1" as="geometry">
            <mxPoint x="105" y="430" as="sourcePoint" />
            <mxPoint x="355" y="430" as="targetPoint" />
          </mxGeometry>
        </mxCell>
        <mxCell id="NSDppucb-_E78mq635yV-8" value="" style="html=1;points=[[0,0,0,0,5],[0,1,0,0,-5],[1,0,0,0,5],[1,1,0,0,-5]];perimeter=orthogonalPerimeter;outlineConnect=0;targetShapes=umlLifeline;portConstraint=eastwest;newEdgeStyle={&quot;curved&quot;:0,&quot;rounded&quot;:0};" vertex="1" parent="1">
          <mxGeometry x="355" y="458" width="10" height="42" as="geometry" />
        </mxCell>
        <mxCell id="NSDppucb-_E78mq635yV-9" value="" style="endArrow=classic;html=1;rounded=0;" edge="1" parent="1">
          <mxGeometry width="50" height="50" relative="1" as="geometry">
            <mxPoint x="355" y="458" as="sourcePoint" />
            <mxPoint x="105" y="458" as="targetPoint" />
          </mxGeometry>
        </mxCell>
        <mxCell id="NSDppucb-_E78mq635yV-10" value="&lt;span style=&quot;font-size: 14px;&quot;&gt;&lt;b&gt;4. Check Request&lt;/b&gt;&lt;/span&gt;" style="text;html=1;align=center;verticalAlign=middle;whiteSpace=wrap;rounded=0;" vertex="1" parent="1">
          <mxGeometry x="136" y="439" width="130" height="20" as="geometry" />
        </mxCell>
        <mxCell id="NSDppucb-_E78mq635yV-11" value="" style="html=1;verticalAlign=bottom;endArrow=open;dashed=1;endSize=8;curved=0;rounded=0;" edge="1" parent="1">
          <mxGeometry relative="1" as="geometry">
            <mxPoint x="105" y="499" as="sourcePoint" />
            <mxPoint x="355" y="499" as="targetPoint" />
          </mxGeometry>
        </mxCell>
        <mxCell id="NSDppucb-_E78mq635yV-13" value="&lt;span style=&quot;font-size: 14px;&quot;&gt;&lt;b&gt;5. Request Available&lt;/b&gt;&lt;/span&gt;" style="text;html=1;align=center;verticalAlign=middle;whiteSpace=wrap;rounded=0;" vertex="1" parent="1">
          <mxGeometry x="135" y="480" width="153" height="20" as="geometry" />
        </mxCell>
        <mxCell id="NSDppucb-_E78mq635yV-15" value="" style="endArrow=classic;html=1;rounded=0;" edge="1" parent="1">
          <mxGeometry width="50" height="50" relative="1" as="geometry">
            <mxPoint x="355" y="532" as="sourcePoint" />
            <mxPoint x="105" y="532" as="targetPoint" />
          </mxGeometry>
        </mxCell>
        <mxCell id="NSDppucb-_E78mq635yV-16" value="&lt;span style=&quot;font-size: 14px;&quot;&gt;&lt;b&gt;6. Check Available Rooms&lt;/b&gt;&lt;/span&gt;" style="text;html=1;align=center;verticalAlign=middle;whiteSpace=wrap;rounded=0;" vertex="1" parent="1">
          <mxGeometry x="140" y="513" width="181.5" height="20" as="geometry" />
        </mxCell>
        <mxCell id="NSDppucb-_E78mq635yV-19" value="" style="html=1;verticalAlign=bottom;endArrow=open;dashed=1;endSize=8;curved=0;rounded=0;" edge="1" parent="1">
          <mxGeometry relative="1" as="geometry">
            <mxPoint x="105" y="575" as="sourcePoint" />
            <mxPoint x="355" y="575" as="targetPoint" />
          </mxGeometry>
        </mxCell>
        <mxCell id="NSDppucb-_E78mq635yV-20" value="&lt;span style=&quot;font-size: 14px;&quot;&gt;&lt;b&gt;7. Room Available&lt;/b&gt;&lt;/span&gt;" style="text;html=1;align=center;verticalAlign=middle;whiteSpace=wrap;rounded=0;" vertex="1" parent="1">
          <mxGeometry x="137" y="556" width="137" height="20" as="geometry" />
        </mxCell>
        <mxCell id="NSDppucb-_E78mq635yV-21" value="" style="html=1;points=[[0,0,0,0,5],[0,1,0,0,-5],[1,0,0,0,5],[1,1,0,0,-5]];perimeter=orthogonalPerimeter;outlineConnect=0;targetShapes=umlLifeline;portConstraint=eastwest;newEdgeStyle={&quot;curved&quot;:0,&quot;rounded&quot;:0};" vertex="1" parent="1">
          <mxGeometry x="355" y="607" width="10" height="43" as="geometry" />
        </mxCell>
        <mxCell id="NSDppucb-_E78mq635yV-22" value="" style="endArrow=classic;html=1;rounded=0;" edge="1" parent="1">
          <mxGeometry width="50" height="50" relative="1" as="geometry">
            <mxPoint x="354" y="607" as="sourcePoint" />
            <mxPoint x="104" y="607" as="targetPoint" />
          </mxGeometry>
        </mxCell>
        <mxCell id="NSDppucb-_E78mq635yV-23" value="&lt;span style=&quot;font-size: 14px;&quot;&gt;&lt;b&gt;8. Register Member&lt;/b&gt;&lt;/span&gt;" style="text;html=1;align=center;verticalAlign=middle;whiteSpace=wrap;rounded=0;" vertex="1" parent="1">
          <mxGeometry x="142" y="587" width="137" height="20" as="geometry" />
        </mxCell>
        <mxCell id="NSDppucb-_E78mq635yV-25" value="" style="html=1;verticalAlign=bottom;endArrow=open;dashed=1;endSize=8;curved=0;rounded=0;" edge="1" parent="1">
          <mxGeometry relative="1" as="geometry">
            <mxPoint x="105" y="650" as="sourcePoint" />
            <mxPoint x="355" y="650" as="targetPoint" />
          </mxGeometry>
        </mxCell>
        <mxCell id="NSDppucb-_E78mq635yV-26" value="&lt;span style=&quot;font-size: 14px;&quot;&gt;&lt;b&gt;9. Member Added&lt;/b&gt;&lt;/span&gt;" style="text;html=1;align=left;verticalAlign=middle;whiteSpace=wrap;rounded=0;" vertex="1" parent="1">
          <mxGeometry x="143" y="630" width="137" height="20" as="geometry" />
        </mxCell>
        <mxCell id="NSDppucb-_E78mq635yV-27" value="" style="html=1;points=[[0,0,0,0,5],[0,1,0,0,-5],[1,0,0,0,5],[1,1,0,0,-5]];perimeter=orthogonalPerimeter;outlineConnect=0;targetShapes=umlLifeline;portConstraint=eastwest;newEdgeStyle={&quot;curved&quot;:0,&quot;rounded&quot;:0};" vertex="1" parent="1">
          <mxGeometry x="355" y="681" width="10" height="43" as="geometry" />
        </mxCell>
        <mxCell id="NSDppucb-_E78mq635yV-28" value="" style="endArrow=classic;html=1;rounded=0;" edge="1" parent="1">
          <mxGeometry width="50" height="50" relative="1" as="geometry">
            <mxPoint x="355" y="681" as="sourcePoint" />
            <mxPoint x="105" y="681" as="targetPoint" />
          </mxGeometry>
        </mxCell>
        <mxCell id="NSDppucb-_E78mq635yV-29" value="&lt;span style=&quot;font-size: 14px;&quot;&gt;&lt;b&gt;10. Allocate Room&lt;/b&gt;&lt;/span&gt;" style="text;html=1;align=center;verticalAlign=middle;whiteSpace=wrap;rounded=0;" vertex="1" parent="1">
          <mxGeometry x="136.5" y="661" width="137" height="20" as="geometry" />
        </mxCell>
        <mxCell id="NSDppucb-_E78mq635yV-30" value="" style="html=1;verticalAlign=bottom;endArrow=open;dashed=1;endSize=8;curved=0;rounded=0;" edge="1" parent="1">
          <mxGeometry relative="1" as="geometry">
            <mxPoint x="105" y="724" as="sourcePoint" />
            <mxPoint x="355" y="724" as="targetPoint" />
          </mxGeometry>
        </mxCell>
        <mxCell id="NSDppucb-_E78mq635yV-31" value="&lt;span style=&quot;font-size: 14px;&quot;&gt;&lt;b&gt;11. Update Details&lt;/b&gt;&lt;/span&gt;" style="text;html=1;align=left;verticalAlign=middle;whiteSpace=wrap;rounded=0;" vertex="1" parent="1">
          <mxGeometry x="144" y="704" width="137" height="20" as="geometry" />
        </mxCell>
        <mxCell id="NSDppucb-_E78mq635yV-33" value="" style="edgeStyle=elbowEdgeStyle;fontSize=12;html=1;endArrow=blockThin;endFill=1;rounded=0;" edge="1" parent="1" target="NSDppucb-_E78mq635yV-24">
          <mxGeometry width="160" relative="1" as="geometry">
            <mxPoint x="365" y="702" as="sourcePoint" />
            <mxPoint x="525" y="702" as="targetPoint" />
          </mxGeometry>
        </mxCell>
        <mxCell id="NSDppucb-_E78mq635yV-34" value="&lt;span style=&quot;font-size: 14px;&quot;&gt;&lt;b&gt;12. Member Registered&lt;/b&gt;&lt;/span&gt;" style="text;html=1;align=center;verticalAlign=middle;whiteSpace=wrap;rounded=0;" vertex="1" parent="1">
          <mxGeometry x="401" y="685" width="160" height="20" as="geometry" />
        </mxCell>
        <mxCell id="NSDppucb-_E78mq635yV-36" value="" style="endArrow=classic;html=1;rounded=0;" edge="1" parent="1" source="NSDppucb-_E78mq635yV-35">
          <mxGeometry width="50" height="50" relative="1" as="geometry">
            <mxPoint x="590" y="410" as="sourcePoint" />
            <mxPoint x="365" y="410" as="targetPoint" />
          </mxGeometry>
        </mxCell>
        <mxCell id="NSDppucb-_E78mq635yV-37" value="&lt;span style=&quot;font-size: 14px;&quot;&gt;&lt;b&gt;1. Request For Register&lt;/b&gt;&lt;/span&gt;" style="text;html=1;align=center;verticalAlign=middle;whiteSpace=wrap;rounded=0;" vertex="1" parent="1">
          <mxGeometry x="401" y="391" width="165" height="20" as="geometry" />
        </mxCell>
        <mxCell id="NSDppucb-_E78mq635yV-39" value="" style="shape=umlDestroy;whiteSpace=wrap;html=1;strokeWidth=3;targetShapes=umlLifeline;" vertex="1" parent="1">
          <mxGeometry x="89" y="780" width="20" height="20" as="geometry" />
        </mxCell>
        <mxCell id="NSDppucb-_E78mq635yV-40" value="" style="shape=umlDestroy;whiteSpace=wrap;html=1;strokeWidth=3;targetShapes=umlLifeline;" vertex="1" parent="1">
          <mxGeometry x="349" y="780" width="20" height="20" as="geometry" />
        </mxCell>
        <mxCell id="NSDppucb-_E78mq635yV-41" value="" style="shape=umlDestroy;whiteSpace=wrap;html=1;strokeWidth=3;targetShapes=umlLifeline;" vertex="1" parent="1">
          <mxGeometry x="588" y="780" width="20" height="20" as="geometry" />
        </mxCell>
      </root>
    </mxGraphModel>
  </diagram>
</mxfile>
